<?xml version="1.0" encoding="utf-8"?>
<!-- Generator: Adobe Illustrator 16.0.0, SVG Export Plug-In . SVG Version: 6.00 Build 0)  -->
<!DOCTYPE svg PUBLIC "-//W3C//DTD SVG 1.1//EN" "http://www.w3.org/Graphics/SVG/1.1/DTD/svg11.dtd">
<svg version="1.1" id="Layer_1" xmlns="http://www.w3.org/2000/svg" xmlns:xlink="http://www.w3.org/1999/xlink" x="0px" y="0px"
	 width="100px" height="100px" viewBox="0 0 100 100" enable-background="new 0 0 100 100" xml:space="preserve">
<g>
	<g transform="translate(0,-1004.3622)">
		<g>
			<path fill="#293A61" d="M89.457,1087.972c-0.329,0-0.646-0.076-0.942-0.225c-1.051-0.528-1.483-1.826-0.963-2.893
				c20.7-43.867-2.715-63.9-10.384-68.994c-6.977-4.635-15.472-7.188-23.92-7.188c-12.534,0-23.744,5.273-31.564,14.847
				c-0.018,0.023-0.05,0.063-0.085,0.101c-0.396,0.455-0.976,0.721-1.586,0.721c-0.519,0-1.019-0.191-1.409-0.541
				c-0.877-0.789-0.961-2.156-0.186-3.049c8.632-10.564,21.003-16.389,34.825-16.389c0.964,0,1.943,0.029,2.909,0.089
				c8.368,0.513,16.441,3.209,23.349,7.798c17.311,11.498,29.525,37.101,11.889,74.472
				C91.004,1087.513,90.272,1087.972,89.457,1087.972L89.457,1087.972z M2.128,1060.403c-0.427,0-0.841-0.13-1.197-0.375
				c-0.469-0.324-0.786-0.815-0.893-1.383c-0.106-0.566,0.012-1.141,0.333-1.616c3.763-5.786,5.832-11.632,7.833-17.285
				c1.574-4.448,3.061-8.648,5.251-12.39c0.374-0.664,1.082-1.079,1.843-1.079c0.422,0.009,0.791,0.12,1.111,0.319
				c0.485,0.304,0.824,0.777,0.957,1.34c0.132,0.561,0.04,1.14-0.258,1.633c-1.809,3.092-3.167,6.941-4.605,11.016
				c-2.036,5.771-4.342,12.311-8.583,18.828C3.493,1060.05,2.835,1060.403,2.128,1060.403L2.128,1060.403z"/>
			<path fill="#293A61" d="M56.121,1004.934c-13.628-0.838-27.632,4.252-37.344,16.137c-0.603,0.693-0.539,1.751,0.144,2.363
				c0.683,0.612,1.726,0.548,2.328-0.145c0.024-0.027,0.047-0.055,0.067-0.082c14.417-17.646,39.051-19.09,56.114-7.754
				c17.062,11.334,26.769,35.248,10.551,69.612c-0.403,0.829-0.07,1.833,0.745,2.245c0.816,0.41,1.807,0.072,2.212-0.757
				c0.007-0.015,0.014-0.03,0.021-0.044c16.705-35.4,6.669-61.642-11.72-73.856C72.344,1008.073,64.299,1005.436,56.121,1004.934
				L56.121,1004.934z M15.734,1026.759c-1-0.012-1.366,0.311-1.665,0.844c-4.907,8.382-6.4,19.241-13.202,29.698
				c-0.512,0.765-0.368,1.805,0.385,2.325c0.752,0.52,1.754,0.323,2.267-0.44c0.009-0.013,0.006-0.027,0.015-0.042
				c7.253-11.151,8.798-22.355,13.175-29.833c0.478-0.788,0.432-1.818-0.343-2.304c-0.251-0.154-0.631-0.24-0.631-0.246V1026.759z"
				/>
			<path fill="#293A61" d="M35.499,1101.54c-0.588,0-1.135-0.238-1.54-0.668c-0.393-0.418-0.603-0.967-0.589-1.543
				c0.014-0.578,0.247-1.115,0.658-1.513c2.261-2.194,9.965-10.051,14.147-19.024c0.341-0.762,1.104-1.259,1.939-1.259
				c0.356,0.009,0.653,0.083,0.932,0.222c0.51,0.254,0.892,0.693,1.076,1.24c0.184,0.545,0.148,1.133-0.104,1.65
				c-4.374,9.388-11.981,17.32-15.048,20.296C36.572,1101.327,36.049,1101.54,35.499,1101.54L35.499,1101.54z M27.853,1097.952
				c-0.58,0-1.143-0.244-1.542-0.671c-0.393-0.417-0.601-0.965-0.587-1.541c0.014-0.577,0.25-1.114,0.662-1.513
				c2.408-2.54,4.611-5.184,6.529-7.842c0.393-0.564,1.041-0.906,1.732-0.906c0.487,0.009,0.931,0.164,1.29,0.439
				c0.452,0.348,0.745,0.854,0.82,1.427c0.078,0.571-0.068,1.139-0.412,1.599c-2.009,2.783-4.335,5.574-6.911,8.291
				c-0.025,0.031-0.069,0.078-0.117,0.123C28.921,1097.741,28.401,1097.952,27.853,1097.952L27.853,1097.952z M37.637,1085.288
				c-0.397,0-0.785-0.113-1.122-0.325c-0.483-0.304-0.821-0.782-0.951-1.343c-0.13-0.562-0.036-1.143,0.264-1.633
				c0.372-0.611,0.733-1.198,1.092-1.772c2.094-3.379,3.901-6.297,5.461-11.666c1.438-4.958,1.738-8.186,1.977-10.778
				c0.069-0.744,0.135-1.441,0.22-2.117c0.555-4.436,2.021-7.51,4.364-9.137c1.083-0.754,2.349-1.153,3.659-1.153
				c1.205,0.001,2.391,0.308,3.453,0.888l0.091,0.051c1.02,0.596,1.37,1.918,0.786,2.95c-0.38,0.667-1.086,1.083-1.847,1.083
				c-0.37,0-0.738-0.1-1.061-0.287c-0.479-0.264-0.946-0.398-1.382-0.398c-0.454,0-0.879,0.141-1.297,0.432
				c-0.728,0.506-2.027,1.977-2.544,6.115c-0.068,0.554-0.125,1.162-0.186,1.838c-0.247,2.673-0.584,6.334-2.15,11.731
				c-1.722,5.935-3.9,9.452-6.007,12.857c-0.333,0.538-0.667,1.077-1.001,1.627C39.056,1084.907,38.378,1085.288,37.637,1085.288z
				 M52.89,1075.01c-0.29,0-0.574-0.059-0.842-0.177c-1.077-0.469-1.575-1.742-1.111-2.836c2.255-5.244,3.818-10.27,4.399-14.154
				c0.284-1.906,0.34-3.601,0.16-4.898c-0.01-0.064-0.015-0.137-0.019-0.207c-0.063-1.188,0.839-2.208,2.011-2.271l0.115-0.004
				c1.071,0,1.979,0.813,2.111,1.891c0.241,1.754,0.186,3.763-0.169,6.137c-0.642,4.303-2.271,9.571-4.708,15.235
				C54.495,1074.507,53.73,1075.01,52.89,1075.01z"/>
			<path fill="#293A61" d="M52.6,1045.849c-1.147,0-2.325,0.328-3.39,1.067c-2.129,1.481-3.6,4.345-4.157,8.797
				c-0.385,3.074-0.355,6.569-2.212,12.973c-1.844,6.354-4.052,9.341-6.604,13.557c-0.481,0.786-0.243,1.819,0.532,2.308
				c0.773,0.487,1.792,0.246,2.273-0.539c0.004-0.006,0.006-0.011,0.009-0.015c2.471-4.083,4.986-7.583,6.957-14.368
				c1.954-6.737,1.98-10.777,2.319-13.492c0.486-3.896,1.705-5.729,2.747-6.457c1.047-0.725,2.13-0.632,3.188-0.055
				c0.789,0.462,1.799,0.186,2.252-0.615c0.457-0.802,0.183-1.824-0.607-2.287c-0.026-0.014-0.055-0.03-0.081-0.043
				C54.87,1046.156,53.747,1045.843,52.6,1045.849L52.6,1045.849z M57.514,1050.948c-0.912,0.052-1.609,0.839-1.56,1.762
				c0.004,0.055,0.008,0.11,0.017,0.165c0.185,1.34,0.133,3.065-0.163,5.04c-0.602,4.033-2.196,9.081-4.434,14.271
				c-0.359,0.85,0.028,1.836,0.864,2.199c0.83,0.365,1.795-0.02,2.162-0.856c2.314-5.382,4.003-10.631,4.672-15.114
				c0.328-2.193,0.415-4.204,0.168-6.002C59.134,1051.542,58.379,1050.901,57.514,1050.948L57.514,1050.948z M50.152,1078.017
				c-0.661-0.015-1.27,0.37-1.543,0.981c-3.531,7.579-9.917,14.965-14.249,19.168c-0.66,0.639-0.685,1.698-0.055,2.369
				c0.63,0.668,1.676,0.693,2.335,0.054c4.548-4.411,11.123-11.946,14.951-20.159c0.4-0.83,0.062-1.835-0.754-2.24
				C50.623,1078.083,50.39,1078.024,50.152,1078.017z M34.677,1085.966c-0.546-0.011-1.061,0.254-1.375,0.706
				c-1.889,2.618-4.067,5.251-6.585,7.907c-0.661,0.637-0.688,1.697-0.059,2.365c0.627,0.67,1.67,0.697,2.33,0.062
				c0.037-0.036,0.07-0.072,0.103-0.109c2.614-2.757,4.892-5.501,6.874-8.248c0.551-0.736,0.408-1.786-0.317-2.345
				C35.369,1086.089,35.028,1085.97,34.677,1085.966L34.677,1085.966z"/>
			<path fill="#293A61" d="M44.969,1103.679c-0.48,0-0.935-0.16-1.312-0.461c-0.448-0.355-0.73-0.866-0.8-1.439
				c-0.067-0.572,0.089-1.139,0.439-1.592c0.644-0.889,1.388-1.869,2.2-2.938c3.708-4.871,8.783-11.547,12.85-21.104
				c0.323-0.796,1.089-1.319,1.947-1.327c0.312,0,0.606,0.064,0.884,0.189c0.52,0.236,0.917,0.664,1.118,1.202
				c0.202,0.538,0.187,1.126-0.046,1.651c-4.311,10.133-9.813,17.352-13.456,22.129c-0.78,1.02-1.48,1.939-2.077,2.764l-0.083,0.11
				C46.24,1103.378,45.629,1103.679,44.969,1103.679L44.969,1103.679z M21.164,1093.714c-0.609,0-1.192-0.267-1.595-0.73
				c-0.776-0.895-0.692-2.262,0.188-3.05c4.013-3.731,7.176-7.487,9.661-11.476c0.362-0.604,1-0.988,1.704-1.023l0.105-0.003
				c0.418,0,0.82,0.123,1.17,0.354c0.475,0.314,0.8,0.799,0.916,1.365c0.116,0.564,0.009,1.141-0.303,1.623
				c-2.68,4.303-6.077,8.345-10.383,12.35C22.182,1093.522,21.682,1093.714,21.164,1093.714L21.164,1093.714z M34.467,1075.579
				c-0.323,0-0.637-0.073-0.93-0.219c-0.512-0.25-0.895-0.688-1.081-1.234c-0.186-0.543-0.151-1.13,0.096-1.65
				c2.176-5.045,3.164-9.827,4.062-14.781c0.167-0.999,1.02-1.709,2.026-1.709c0.007,0,0.014,0,0.014,0
				c0.203,0,0.339-0.067,0.472-0.041c1.152,0.232,1.902,1.33,1.673,2.498c-0.947,5.205-1.993,10.319-4.358,15.803
				c-0.014,0.035-0.036,0.078-0.06,0.127C36.022,1075.124,35.289,1075.579,34.467,1075.579L34.467,1075.579z M62.616,1073.029
				c-0.229,0-0.459-0.038-0.678-0.112c-1.111-0.38-1.712-1.609-1.339-2.736c1.449-4.359,2.546-8.948,3.264-13.637
				c1.48-7.896-3.484-13.025-8.72-14.484c-1.032-0.288-2.077-0.435-3.104-0.435c-1.729,0-3.383,0.423-4.782,1.222
				c-2.61,1.488-4.327,4.146-5.106,7.902c-0.208,0.993-1.083,1.714-2.082,1.714c-0.146,0-0.294-0.015-0.439-0.046
				c-1.147-0.244-1.886-1.39-1.647-2.556c1.016-4.892,3.568-8.72,7.19-10.782c1.658-0.946,3.495-1.521,5.461-1.707
				c0.46-0.043,0.929-0.064,1.392-0.064c1.411,0,2.84,0.198,4.246,0.589c7.271,2.029,13.651,9.329,11.779,19.356
				c-0.754,4.934-1.906,9.752-3.418,14.307C64.342,1072.438,63.53,1073.029,62.616,1073.029z"/>
			<path fill="#293A61" d="M50.679,1037.854c-1.826,0.174-3.623,0.707-5.271,1.647c-3.296,1.878-5.905,5.397-6.955,10.458
				c-0.186,0.904,0.387,1.791,1.277,1.981c0.891,0.188,1.765-0.39,1.954-1.293c0.892-4.298,2.901-6.835,5.34-8.226
				c2.438-1.392,5.411-1.623,8.247-0.832c5.676,1.581,10.571,6.998,9.072,14.967l-0.004,0.027l-0.004,0.033
				c-0.771,5.05-1.917,9.605-3.282,13.717c-0.289,0.877,0.176,1.825,1.038,2.121c0.863,0.295,1.799-0.178,2.089-1.053
				c1.421-4.277,2.604-9.013,3.404-14.241c1.789-9.593-4.313-16.811-11.438-18.797C54.367,1037.869,52.506,1037.681,50.679,1037.854
				L50.679,1037.854z M38.658,1056.306c-0.783,0.028-1.44,0.61-1.571,1.395c-0.875,4.818-1.854,9.773-4.104,14.986
				c-0.396,0.834-0.055,1.836,0.765,2.238c0.82,0.404,1.806,0.057,2.205-0.775c0.019-0.039,0.035-0.078,0.051-0.121
				c2.415-5.601,3.446-10.871,4.327-15.723c0.177-0.905-0.402-1.787-1.294-1.969C38.912,1056.312,38.785,1056.302,38.658,1056.306
				L38.658,1056.306z M60.298,1075.302c-0.663,0.006-1.259,0.412-1.513,1.035c-4.982,11.712-11.481,19.131-15.11,24.148
				c-0.563,0.728-0.438,1.779,0.278,2.35c0.717,0.571,1.756,0.443,2.316-0.283c0.024-0.029,0.042-0.059,0.063-0.087
				c3.428-4.737,10.284-12.589,15.481-24.804c0.372-0.844,0.001-1.834-0.829-2.211C60.766,1075.352,60.532,1075.301,60.298,1075.302
				L60.298,1075.302z M31.145,1077.918c-0.544,0.027-1.04,0.327-1.321,0.799c-2.306,3.7-5.424,7.558-9.748,11.581
				c-0.684,0.611-0.75,1.668-0.147,2.363c0.604,0.693,1.645,0.759,2.328,0.148c0.016-0.014,0.033-0.029,0.048-0.045
				c4.518-4.203,7.835-8.291,10.306-12.256c0.5-0.775,0.287-1.812-0.476-2.318C31.842,1077.996,31.495,1077.9,31.145,1077.918z"/>
			<path fill="#293A61" d="M54.439,1104.362c-0.502,0-0.992-0.182-1.375-0.512c-0.896-0.771-1.008-2.137-0.252-3.047
				c5.918-7.018,10.734-14.824,14.318-23.713c0.312-0.802,1.065-1.105,1.922-1.105c0,0,0.004,0,0.006,0
				c0.35,0,0.629-0.201,0.893-0.085c0.522,0.228,0.927,0.517,1.137,1.052c0.213,0.537,0.205,1.059-0.018,1.588
				c-3.756,9.311-8.809,17.74-15.018,25.106C55.645,1104.123,55.059,1104.362,54.439,1104.362L54.439,1104.362z M14.456,1088.253
				c-0.676,0-1.296-0.314-1.703-0.861c-0.706-0.953-0.517-2.31,0.42-3.025c9.351-7.229,14.961-18.777,17.153-35.299
				c0.928-7.676,4.595-13.764,10.329-17.139c2.597-1.525,5.507-2.465,8.653-2.79c0.802-0.083,1.625-0.126,2.443-0.126
				c2.221,0,4.457,0.305,6.65,0.908l0.052,0.013c0.558,0.157,1.014,0.519,1.293,1.021c0.281,0.502,0.351,1.084,0.198,1.641
				c-0.253,0.932-1.095,1.582-2.047,1.582l0,0c-0.192,0-0.386-0.027-0.573-0.08c-1.832-0.508-3.707-0.764-5.566-0.764
				c-3.274,0-6.375,0.806-8.967,2.33c-4.692,2.761-7.466,7.454-8.245,13.95c-2.353,17.748-8.499,30.231-18.792,38.191
				C15.362,1088.102,14.92,1088.253,14.456,1088.253z M72.73,1069.089c-0.215,0-0.43-0.035-0.639-0.102
				c-1.117-0.358-1.741-1.574-1.391-2.708c0.576-2.077,1.107-4.274,1.578-6.517c0.68-3.803,0.617-7.403-0.194-10.687
				c-0.052-0.204-0.075-0.417-0.069-0.632c0.045-1.166,0.979-2.078,2.126-2.078c1.036,0.035,1.854,0.719,2.076,1.664
				c0.958,3.888,1.042,8.107,0.248,12.534l-0.028,0.116c-0.479,2.29-1.037,4.59-1.646,6.782c-0.001,0.013-0.015,0.062-0.03,0.112
				C74.483,1068.479,73.666,1069.089,72.73,1069.089z M71.936,1045.059c-0.794,0-1.516-0.443-1.885-1.156
				c-1.611-2.872-3.983-5.362-6.846-7.189c-0.613-0.379-0.997-0.912-1.016-1.649c-0.031-1.19,0.9-2.079,2.073-2.079h0.004
				c0.466,0,0.865-0.015,1.21,0.212c3.449,2.201,6.312,5.149,8.279,8.653l0.062,0.077c0.548,1.054,0.147,2.345-0.89,2.899
				C72.621,1044.989,72.279,1045.059,71.936,1045.059L71.936,1045.059z"/>
			<path fill="#293A61" d="M49.356,1029.62c-2.972,0.309-5.86,1.199-8.458,2.729c-5.191,3.054-9.12,8.699-10.097,16.781
				c-2.042,15.398-7.127,27.728-17.338,35.623c-0.728,0.557-0.876,1.605-0.326,2.346c0.547,0.739,1.583,0.887,2.311,0.332
				c0.006-0.004-0.158-0.01-0.151-0.013c11.111-8.593,16.438-21.948,18.438-37.843l0,0v-0.021c1-7.229,4.329-11.77,8.648-14.312
				c4.32-2.541,9.864-3.03,14.988-1.612c0.877,0.248,1.828-0.275,2.071-1.166c0.244-0.891-0.25-1.813-1.129-2.061
				c0,0,0.002-0.002-0.002-0.002C55.371,1029.587,52.328,1029.31,49.356,1029.62L49.356,1029.62z M64.274,1033.199
				c-0.909,0.023-1.63,0.79-1.606,1.716c0.015,0.568,0.311,1.092,0.791,1.387c2.832,1.807,5.279,4.283,7.016,7.375
				c0.424,0.82,1.422,1.133,2.23,0.702c0.805-0.43,1.113-1.442,0.688-2.261c-0.017-0.032-0.034-0.066-0.054-0.097
				c-2.021-3.601-4.864-6.474-8.124-8.552C64.937,1033.284,64.608,1033.19,64.274,1033.199L64.274,1033.199z M73.733,1046.852
				c0-0.037-1.44,0.684-1.477,1.607c-0.005,0.166,0.132,0.335,0.174,0.496c0.783,3.179,0.989,6.812,0.257,10.908
				c-0.473,2.26-0.975,4.447-1.561,6.559c-0.271,0.883,0.225,1.822,1.094,2.102c0.869,0.277,1.805-0.213,2.078-1.095
				c0.011-0.034,0.022-0.065,0.029-0.099c0.609-2.193,1.16-4.462,1.652-6.807l0.009-0.021l0.005-0.027
				c0.812-4.524,0.424-8.665-0.481-12.335c-0.171-0.731-0.779-1.263-1.779-1.29V1046.852z M69.065,1075.952
				c-0.661,0.019-1.248,0.438-1.491,1.062c-4.015,9.956-9.176,17.909-14.396,24.103c-0.587,0.706-0.499,1.763,0.195,2.361
				c0.691,0.593,1.723,0.513,2.314-0.183c5.43-6.441,10.786-14.705,14.941-25.013c0.359-0.85-0.029-1.833-0.867-2.196
				C69.543,1075.991,69.305,1075.945,69.065,1075.952L69.065,1075.952z"/>
			<path fill="#293A61" d="M69.661,1095.175c-0.37,0-0.735-0.1-1.06-0.289c-0.492-0.287-0.847-0.752-0.995-1.311
				c-0.147-0.557-0.073-1.14,0.211-1.639c3.338-5.905,11.288-21.42,13.013-37.908c-0.035-16.859-11.302-25.555-21.836-28.054
				c-2.279-0.542-4.598-0.815-6.89-0.815c-10.305,0-18.738,5.397-22.556,14.439l-0.04,0.09c-0.342,0.76-1.102,1.256-1.934,1.256
				c-0.306,0-0.602-0.066-0.881-0.193c-1.066-0.496-1.54-1.779-1.054-2.861c4.138-9.799,13.195-16.135,24.222-16.943
				c0.789-0.058,1.588-0.086,2.375-0.086c2.585,0,5.184,0.305,7.727,0.908c11.595,2.752,25.134,12.881,25.133,32.377l-0.006,0.165
				c-1.729,16.776-9.249,32.117-13.579,39.774C71.129,1094.76,70.422,1095.175,69.661,1095.175z M9.776,1078.498
				c-1.018,0-1.896-0.739-2.088-1.757c-0.217-1.169,0.543-2.303,1.694-2.523c0.883-0.206,8.916-2.746,13.854-27.115
				c0.189-0.998,1.057-1.736,2.067-1.748l0,0c0.175,0,0.332,0.018,0.484,0.051c1.148,0.259,1.872,1.414,1.62,2.578
				c-4.895,24.17-12.809,29.448-17.09,30.443c-0.023,0.008-0.083,0.023-0.147,0.033C10.042,1078.485,9.909,1078.498,9.776,1078.498
				L9.776,1078.498z"/>
			<path fill="#293A61" d="M49.898,1021.429c-9.95,0.73-19.373,6.125-23.822,16.66c-0.377,0.842-0.012,1.834,0.817,2.219
				c0.829,0.383,1.806,0.012,2.185-0.83c0.012-0.023,0.021-0.047,0.03-0.071c5.268-12.47,18.184-16.708,29.994-13.905
				c11.795,2.797,22.174,12.519,22.203,28.578c-1.531,14.637-8.018,29.155-13.072,38.098c-0.455,0.803-0.184,1.826,0.607,2.288
				c0.789,0.461,1.799,0.185,2.254-0.616c0.002-0.002,0.004-0.005,0.004-0.007c5.226-9.241,11.978-24.096,13.563-39.522l0.072-0.088
				v-0.087c0-17.587-11.745-28.802-24.821-31.903c-3.27-0.775-6.67-1.055-9.986-0.812L49.898,1021.429z M25.307,1045.839
				c-0.785,0.01-1.456,0.578-1.603,1.36c-4.414,21.777-11.459,26.849-14.232,27.493c-0.896,0.174-1.483,1.049-1.313,1.957
				s1.034,1.504,1.928,1.332c0.042-0.008,0.084-0.017,0.124-0.029c4.939-1.147,12.201-7.724,16.728-30.076
				c0.197-0.904-0.364-1.796-1.253-1.997C25.562,1045.851,25.433,1045.839,25.307,1045.839z"/>
			<path fill="#293A61" d="M84.19,1081.998c-0.278,0-0.551-0.056-0.81-0.161c-1.085-0.453-1.606-1.718-1.161-2.82
				c2.554-6.312,5.02-13.087,5.768-19.856l0.022-0.134c2.287-14.387-2.743-27.327-13.462-34.582
				c-0.602-0.396-0.964-1.072-0.964-1.805c0-1.19,0.954-2.16,2.127-2.162c0.435,0,0.85,0.131,1.205,0.377
				c11.945,8.087,17.807,22.982,15.287,38.867c-0.811,7.266-3.383,14.357-6.043,20.936
				C85.831,1081.472,85.058,1081.998,84.19,1081.998L84.19,1081.998z M5.932,1069.985c-0.68,0-1.324-0.113-1.723-0.672
				c-0.689-0.964-0.477-2.206,0.472-2.905c5.023-3.945,7.319-8.978,9.217-15.399c0.49-1.656,0.94-3.338,1.417-5.146
				c1.303-4.941,2.782-10.525,5.43-16.219l0.054-0.104c5.259-9.104,14.058-15.001,24.815-16.661
				c0.117-0.018,0.234-0.025,0.352-0.025c1.058,0.016,1.929,0.794,2.083,1.849c0.083,0.569-0.06,1.14-0.398,1.601
				c-0.34,0.463-0.837,0.766-1.399,0.849c-9.426,1.454-17.134,6.591-21.705,14.465c-2.398,5.181-3.763,10.321-5.084,15.294
				c-0.497,1.866-0.964,3.629-1.485,5.395c-1.841,6.242-4.412,12.697-10.698,17.639c-0.033,0.025-0.069-0.166-0.109-0.139
				c-0.354,0.26-0.785,0.182-1.235,0.182H5.932z M68.629,1020.516c-0.309,0-0.607-0.066-0.889-0.198
				c-4.12-1.927-8.686-3.128-13.205-3.474c-1.101-0.08-1.951-0.986-1.976-2.107c-0.022-1.191,0.714-2.181,1.884-2.206l0.29-0.011
				v0.043c5,0.419,10.049,1.707,14.586,3.832c0.516,0.241,1.011,0.672,1.206,1.213c0.199,0.541,0.227,1.128-0.012,1.651
				C70.167,1020.024,69.457,1020.516,68.629,1020.516z"/>
			<path fill="#293A61" d="M54.733,1013.016c-1,0.02-1.673,0.784-1.654,1.709c0.018,0.865,0.661,1.572,1.513,1.634
				c4.574,0.352,9.13,1.54,13.359,3.518c0.827,0.387,1.802,0.019,2.183-0.82c0.382-0.841,0.015-1.835-0.812-2.221
				c-4.594-2.15-9.498-3.433-14.465-3.812c-0.055-0.002-0.124-0.002-0.124,0V1013.016z M45.967,1013.339
				c-0.094,0-0.188,0.008-0.28,0.021c-9.82,1.518-18.958,6.882-24.439,16.375l-0.039,0.062l-0.03,0.065
				c-3.569,7.668-4.954,15.004-6.822,21.339c-1.871,6.332-4.138,11.582-9.393,15.709c-0.737,0.543-0.902,1.589-0.368,2.338
				c0.535,0.748,1.566,0.916,2.304,0.372c0.029-0.019,0.057-0.042,0.083-0.063c5.973-4.695,8.595-10.825,10.533-17.393
				c1.932-6.547,3.284-13.604,6.617-20.797c4.952-8.53,13.084-13.316,22.048-14.699c0.901-0.135,1.525-0.984,1.394-1.898
				C47.458,1013.958,46.778,1013.35,45.967,1013.339L45.967,1013.339z M75.711,1020.963c-0.91,0.001-1.649,0.751-1.648,1.675
				c0,0.566,0.284,1.095,0.751,1.402c10.882,7.365,15.958,20.664,13.662,35.095l-0.009,0.04l-0.004,0.038
				c-0.734,6.657-3.114,13.347-5.801,19.986c-0.346,0.856,0.057,1.834,0.901,2.187c0.844,0.352,1.807-0.057,2.153-0.914
				c2.711-6.705,5.213-13.646,6.014-20.828c2.462-15.517-3.073-30.258-15.086-38.39
				C76.369,1021.063,76.043,1020.963,75.711,1020.963L75.711,1020.963z"/>
		</g>
	</g>
	<path fill="#293A61" d="M97.17,100c-0.725,0-1.448-0.276-2.001-0.829L0.829,4.831c-1.105-1.105-1.105-2.896,0-4.002
		c1.104-1.105,2.897-1.105,4.002,0l94.34,94.34c1.105,1.105,1.105,2.896,0,4.002C98.618,99.724,97.894,100,97.17,100z"/>
	<path fill="#293A61" d="M2.83,100c-0.724,0-1.449-0.276-2.001-0.829c-1.105-1.105-1.105-2.896,0-4.002l94.34-94.34
		c1.105-1.105,2.896-1.105,4.002,0s1.105,2.896,0,4.002l-94.34,94.34C4.279,99.724,3.555,100,2.83,100z"/>
</g>
</svg>
