<?xml version="1.0" encoding="utf-8"?>
<!-- Generator: Adobe Illustrator 16.0.0, SVG Export Plug-In . SVG Version: 6.00 Build 0)  -->
<!DOCTYPE svg PUBLIC "-//W3C//DTD SVG 1.1//EN" "http://www.w3.org/Graphics/SVG/1.1/DTD/svg11.dtd">
<svg version="1.1" id="Layer_1" xmlns="http://www.w3.org/2000/svg" xmlns:xlink="http://www.w3.org/1999/xlink" x="0px" y="0px"
	 width="220px" height="100px" viewBox="0 0 220 100" enable-background="new 0 0 220 100" xml:space="preserve">
<g>
	<g>
		<path fill="#293A61" d="M59.958,56.715c0.773-2.992,0.652-6.146-0.348-9.068c-0.506-1.572-0.256-3.287,0.684-4.646
			c-0.314-0.285-0.598-0.6-0.854-0.936c-1.322-1.756-1.723-4.035-1.086-6.139l0,0h-0.365c-4.205,0.002-7.621-3.402-7.623-7.615
			c-0.006-4.205,3.4-7.619,7.611-7.621c2.395-0.004,4.654,1.123,6.094,3.039c1.211-2.268,3.568-3.691,6.143-3.695h80.019v-4.508
			c0-1.156,0.938-2.094,2.092-2.094h8.945c1.156,0,2.094,0.938,2.094,2.094v4.551c3.568,0.328,6.305,3.307,6.334,6.891v10.967
			c-0.016,1.932-0.828,3.771-2.246,5.082c0.969,1.408,1.205,3.197,0.641,4.812c-1.357,3.836-4.982,6.4-9.055,6.404h-29.555
			c-1.074,0.004-2.055,0.629-2.508,1.605l-4.928,10.701c-3.27,7.07-10.35,11.596-18.136,11.596H88.264L83.69,94.877
			c-0.832,3.021-3.578,5.115-6.711,5.123H57.235c-3.854-0.027-6.957-3.174-6.93-7.023c0.006-0.59,0.082-1.172,0.232-1.74
			L59.958,56.715z M57.989,24.834c-1.893,0-3.432,1.535-3.432,3.432c0,1.895,1.539,3.432,3.432,3.432
			c1.896,0,3.432-1.537,3.432-3.432l0,0c0-1.891-1.529-3.424-3.418-3.432H57.989z M154.42,17.617v2.359h4.754v-2.359H154.42z
			 M162.789,24.162H99.805v6.422c0,1.152-0.934,2.09-2.09,2.09s-2.094-0.938-2.094-2.09v-6.422H90.04v6.422
			c0,1.152-0.939,2.09-2.094,2.09c-1.156,0-2.092-0.938-2.092-2.09v-6.422h-5.582v6.422c0,1.152-0.936,2.09-2.092,2.09
			c-1.154,0-2.094-0.938-2.094-2.09v-6.422h-5.943c-1.227,0.006-2.299,0.812-2.652,1.98c-0.029,0.104-0.066,0.199-0.109,0.293
			l-5.123,10.803c-0.355,1.498,0.574,3.002,2.072,3.357c0.197,0.047,0.404,0.07,0.605,0.074h97.671c1.545,0,2.791-1.25,2.791-2.791
			v-3.363h-6.025c-1.158,0-2.094-0.936-2.094-2.092s0.936-2.092,2.094-2.092l0,0h6.139v-3.391c-0.008-1.527-1.24-2.764-2.764-2.779
			H162.789z M55.045,94.682c0.525,0.688,1.34,1.086,2.205,1.09h19.744c1.242-0.014,2.328-0.842,2.662-2.039l4.994-18.279
			c0.256-0.906,1.084-1.537,2.025-1.533h17.277c6.145-0.021,11.718-3.607,14.287-9.195l4.924-10.703
			c1.141-2.463,3.605-4.041,6.318-4.045h29.568c2.297,0,4.34-1.449,5.107-3.617c0.131-0.357,0.072-0.762-0.152-1.07
			c-0.215-0.305-0.566-0.482-0.936-0.477H64.672c-0.365-0.002-0.711,0.174-0.922,0.477c-0.215,0.291-0.277,0.67-0.166,1.018
			c1.26,3.715,1.396,7.719,0.391,11.51l-1.174,4.271h13.73c1.16,0,2.096,0.938,2.096,2.092c0,1.158-0.936,2.092-2.096,2.092H62.299
			c-0.186,0-0.375-0.027-0.555-0.08l-1.619,5.898h13.688c1.152,0,2.094,0.938,2.094,2.096c0,1.156-0.941,2.092-2.094,2.092H59.579
			c-0.205-0.002-0.416-0.035-0.613-0.098l-1.395,5.064h13.383c1.152,0,2.09,0.939,2.09,2.094s-0.938,2.096-2.09,2.096H56.721h-0.324
			l-1.883,6.875l0,0C54.321,93.141,54.514,94.016,55.045,94.682z"/>
		<path fill="#293A61" d="M89.245,58.711c0.793-2.91,2.668-5.406,5.246-6.977l0.293-0.182c1.783-1.029,3.803-1.574,5.861-1.576
			h11.507c2.699-0.004,4.889,2.178,4.895,4.875c0.002,0.691-0.145,1.373-0.428,2.004l-3.111,6.975l-0.096,0.195
			c-2.125,3.676-6.044,5.939-10.283,5.945H92.506c-2.693,0-4.881-2.184-4.885-4.879c0-0.453,0.064-0.898,0.186-1.328L89.245,58.711z
			 M91.967,65.535c0.127,0.174,0.338,0.277,0.559,0.275h10.604c2.709-0.004,5.217-1.434,6.598-3.766l3.085-6.863
			c0.152-0.357-0.006-0.766-0.363-0.922c-0.086-0.037-0.184-0.057-0.277-0.055h-11.513c-0.807,0.004-1.607,0.133-2.373,0.389
			c1.076,2.58,3.135,4.633,5.721,5.693c1.068,0.449,1.568,1.676,1.121,2.742c-0.451,1.062-1.678,1.566-2.742,1.117
			c-0.027-0.012-0.055-0.023-0.082-0.035c-3.279-1.379-5.953-3.895-7.52-7.09c-0.688,0.816-1.197,1.768-1.492,2.791l-1.398,5.094
			C91.815,65.113,91.84,65.348,91.967,65.535L91.967,65.535z"/>
	</g>
	<g>
		<g>
			<path fill="#293A61" d="M14.735,71.836c-19.646-19.643-19.646-51.617,0-71.053c1.045-1.045,2.715-1.045,3.551,0
				c1.045,1.045,1.045,2.717,0,3.553c-17.553,17.555-17.553,46.184,0,63.738c0.418,0.418,0.836,1.256,0.836,1.883
				s-0.207,1.252-0.836,1.879C17.243,72.879,15.569,72.879,14.735,71.836z"/>
		</g>
		<g>
			<path fill="#293A61" d="M27.025,13.322c1.043-1.045,2.717-1.045,3.553,0c1.045,1.043,1.045,2.717,0,3.553
				c-10.658,10.656-10.658,28.004,0,38.451c0.418,0.418,0.836,1.254,0.836,1.881c0,0.629-0.209,1.256-0.836,1.883
				c-1.043,1.043-2.717,1.043-3.553,0C14.488,46.551,14.488,25.861,27.025,13.322z"/>
		</g>
		<g>
			<path fill="#293A61" d="M39.37,46.551c-2.713-2.719-4.178-6.48-4.178-10.242s1.465-7.523,4.178-10.238
				c1.047-1.047,2.721-1.047,3.555,0c1.047,1.045,1.047,2.715,0,3.553c-3.555,3.551-3.555,9.613,0,13.166
				c0.418,0.418,0.836,1.252,0.836,1.881c0,0.627-0.209,1.252-0.836,1.881C41.879,47.594,40.417,47.594,39.37,46.551z"/>
		</g>
	</g>
	<g>
		<g>
			<path fill="#293A61" d="M205.266,71.836c19.646-19.643,19.646-51.617,0-71.053c-1.045-1.045-2.715-1.045-3.551,0
				c-1.045,1.045-1.045,2.717,0,3.553c17.553,17.555,17.553,46.184,0,63.738c-0.418,0.418-0.836,1.256-0.836,1.883
				s0.207,1.252,0.836,1.879C202.758,72.879,204.432,72.879,205.266,71.836z"/>
		</g>
		<g>
			<path fill="#293A61" d="M192.975,13.322c-1.043-1.045-2.717-1.045-3.553,0c-1.045,1.043-1.045,2.717,0,3.553
				c10.658,10.656,10.658,28.004,0,38.451c-0.418,0.418-0.836,1.254-0.836,1.881c0,0.629,0.209,1.256,0.836,1.883
				c1.043,1.043,2.717,1.043,3.553,0C205.512,46.551,205.512,25.861,192.975,13.322z"/>
		</g>
		<g>
			<path fill="#293A61" d="M180.631,46.551c2.713-2.719,4.178-6.48,4.178-10.242s-1.465-7.523-4.178-10.238
				c-1.047-1.047-2.721-1.047-3.555,0c-1.047,1.045-1.047,2.715,0,3.553c3.555,3.551,3.555,9.613,0,13.166
				c-0.418,0.418-0.836,1.252-0.836,1.881c0,0.627,0.209,1.252,0.836,1.881C178.121,47.594,179.584,47.594,180.631,46.551z"/>
		</g>
	</g>
</g>
</svg>
