<?xml version="1.0" encoding="utf-8"?>
<!-- Generator: Adobe Illustrator 16.0.0, SVG Export Plug-In . SVG Version: 6.00 Build 0)  -->
<!DOCTYPE svg PUBLIC "-//W3C//DTD SVG 1.1//EN" "http://www.w3.org/Graphics/SVG/1.1/DTD/svg11.dtd">
<svg version="1.1" id="Layer_1" xmlns="http://www.w3.org/2000/svg" xmlns:xlink="http://www.w3.org/1999/xlink" x="0px" y="0px"
	 width="106px" height="100px" viewBox="0 0 106 100" enable-background="new 0 0 106 100" xml:space="preserve">
<path fill="#293A61" d="M17.562,66.32c-0.037,0.75-0.67,1.336-1.431,1.336c-0.021,0-0.044-0.002-0.067-0.002
	c-6.549-0.298-9.133-5.35-9.24-5.564c-0.348-0.696-0.05-1.533,0.662-1.872c0.713-0.337,1.565-0.05,1.913,0.642
	c0.092,0.178,2.008,3.777,6.8,3.998C16.988,64.894,17.597,65.549,17.562,66.32z M106,56.419c0,9.22-7.675,16.72-17.107,16.72
	c-9.432,0-17.107-7.5-17.107-16.72c0-0.774,0.643-1.4,1.434-1.4h2.83l10.887-30.576H57.684l0.858,59.209h3.938
	c0.792,0,1.434,0.628,1.434,1.401v4.809h19.48c0.793,0,1.434,0.626,1.434,1.399v7.34c0,0.773-0.641,1.399-1.434,1.399H22.261
	c-0.792,0-1.434-0.626-1.434-1.399v-7.34c0-0.773,0.642-1.399,1.434-1.399h19.48v-4.809c0-0.773,0.642-1.401,1.433-1.401h3.939
	l0.859-59.209h-28.91l10.889,30.576h2.83c0.792,0,1.434,0.628,1.434,1.402c0,9.22-7.676,16.72-17.108,16.72
	C7.676,73.141,0,65.639,0,56.421c0-0.774,0.642-1.402,1.434-1.402h2.83l10.888-30.576h-4.68c-0.792,0-1.433-0.628-1.433-1.401
	v-5.158c0-0.773,0.642-1.402,1.433-1.402h37.609l0.051-3.414c-1.341-1.424-2.1-3.387-2.1-5.483C46.033,3.402,49.082,0,52.829,0
	s6.796,3.402,6.796,7.583c0,2.097-0.759,4.06-2.1,5.483l0.051,3.414h37.608c0.792,0,1.434,0.629,1.434,1.402v5.158
	c0,0.773-0.642,1.401-1.434,1.401H90.85l10.888,30.576h2.831C105.359,55.019,106,55.646,106,56.419z M31.276,57.82H2.937
	c0.721,7.02,6.801,12.517,14.169,12.517C24.476,70.337,30.555,64.84,31.276,57.82z M26.915,55.019l-9.809-27.545L7.297,55.019
	H26.915z M81.961,92.662H23.694v4.536h58.267V92.662z M61.046,86.454H44.608v3.407h16.438V86.454z M93.75,21.64v-2.355H56.162
	c-0.785,0-1.423-0.616-1.434-1.381l-0.08-5.388c-0.006-0.404,0.168-0.791,0.473-1.062c1.023-0.901,1.635-2.349,1.635-3.871
	c0-2.635-1.761-4.779-3.928-4.779c-2.168,0-3.93,2.145-3.93,4.779c0,1.522,0.611,2.97,1.634,3.871
	c0.307,0.271,0.48,0.657,0.473,1.062l-0.08,5.388c-0.011,0.765-0.649,1.381-1.432,1.381H11.904v2.355h37.521
	c0.384,0,0.751,0.151,1.021,0.417c0.27,0.269,0.418,0.628,0.411,1.004l-0.878,60.591h5.697l-0.88-60.591
	c-0.006-0.376,0.144-0.735,0.413-1.004c0.27-0.266,0.637-0.417,1.021-0.417H93.75L93.75,21.64z M79.083,55.019h19.618l-9.809-27.547
	L79.083,55.019z M103.062,57.82H74.723c0.721,7.02,6.802,12.517,14.17,12.517C96.262,70.337,102.342,64.84,103.062,57.82z
	 M87.982,64.855c-4.791-0.219-6.708-3.818-6.799-3.996c-0.347-0.691-1.2-0.98-1.913-0.644c-0.712,0.339-1.009,1.178-0.663,1.872
	c0.107,0.215,2.692,5.267,9.241,5.564c0.022,0.002,0.045,0.002,0.066,0.002c0.763,0,1.396-0.584,1.431-1.334
	C89.384,65.549,88.773,64.894,87.982,64.855z"/>
</svg>
