<?xml version="1.0" encoding="utf-8"?>
<!-- Generator: Adobe Illustrator 16.0.0, SVG Export Plug-In . SVG Version: 6.00 Build 0)  -->
<!DOCTYPE svg PUBLIC "-//W3C//DTD SVG 1.1//EN" "http://www.w3.org/Graphics/SVG/1.1/DTD/svg11.dtd">
<svg version="1.1" id="Layer_1" xmlns="http://www.w3.org/2000/svg" xmlns:xlink="http://www.w3.org/1999/xlink" x="0px" y="0px"
	 width="128px" height="100px" viewBox="0 0 128 100" enable-background="new 0 0 128 100" xml:space="preserve">
<path fill="#293A61" d="M110.145,20.674c0,1.479-1.197,2.678-2.676,2.678H48.842c-1.479,0-2.676-1.199-2.676-2.678
	c0-1.481,1.197-2.682,2.676-2.682h58.627C108.947,17.992,110.145,19.192,110.145,20.674z M48.842,37.942h17.643
	c1.479,0,2.676-1.2,2.676-2.679c0-1.482-1.197-2.68-2.676-2.68H48.842c-1.479,0-2.676,1.197-2.676,2.68
	C46.166,36.742,47.363,37.942,48.842,37.942z M48.842,52.492h17.643c1.479,0,2.676-1.199,2.676-2.68s-1.197-2.68-2.676-2.68H48.842
	c-1.479,0-2.676,1.199-2.676,2.68S47.363,52.492,48.842,52.492z M48.842,67.042h17.643c1.479,0,2.676-1.199,2.676-2.679
	c0-1.48-1.197-2.68-2.676-2.68H48.842c-1.479,0-2.676,1.199-2.676,2.68C46.166,65.843,47.363,67.042,48.842,67.042z M107.469,76.232
	H48.842c-1.479,0-2.676,1.199-2.676,2.679c0,1.481,1.197,2.68,2.676,2.68h58.627c1.479,0,2.676-1.198,2.676-2.68
	C110.145,77.432,108.947,76.232,107.469,76.232z M110.145,35.25v29.086c0,1.479-1.197,2.68-2.676,2.68H81.408
	c-1.48,0-2.678-1.2-2.678-2.68V35.264c0-1.482,1.197-2.68,2.678-2.68h26.061c1.479,0,2.676,1.197,2.676,2.68V35.25z M104.791,37.928
	H84.084v23.729h20.707V37.928z M0,83.159v-52.25c0-1.481,1.198-2.681,2.676-2.681c1.479,0,2.677,1.199,2.677,2.681v52.25
	c0.217,6.337,5.525,11.3,11.856,11.083c6.028-0.207,10.866-5.049,11.072-11.083V2.678c0-1.479,1.2-2.678,2.678-2.678h94.363
	C126.803,0,128,1.199,128,2.678v82.866c0.008,7.976-6.447,14.448-14.416,14.456c-0.018,0-0.035,0-0.055,0H16.825
	C7.536,99.992,0.008,92.457,0,83.159z M29.112,94.641h84.417c5.014,0,9.076-4.067,9.076-9.082V5.359H33.649v77.8
	c0.005,4.265-1.613,8.368-4.522,11.481H29.112z M14.147,31.471v51.648c0,1.479,1.2,2.68,2.677,2.68s2.676-1.201,2.676-2.68V31.471
	c0-1.48-1.198-2.678-2.676-2.678S14.147,29.99,14.147,31.471z"/>
</svg>
